<?xml version="1.0" standalone="no"?>
<!DOCTYPE svg PUBLIC "-//W3C//DTD SVG 20010904//EN"
 "http://www.w3.org/TR/2001/REC-SVG-20010904/DTD/svg10.dtd">
<svg version="1.0" xmlns="http://www.w3.org/2000/svg"
 width="2000.000000pt" height="1600.000000pt" viewBox="0 0 2000.000000 1600.000000"
 preserveAspectRatio="xMidYMid meet">
<metadata>
Created by potrace 1.16, written by Peter Selinger 2001-2019
</metadata>
<g transform="translate(0.000000,1600.000000) scale(0.100000,-0.100000)"
fill="#000000" stroke="none">
<path d="M11679 13027 c-21 -14 -39 -37 -47 -61 -10 -30 -12 -269 -10 -1116 3
-1077 3 -1079 24 -1107 11 -15 32 -34 45 -40 19 -10 468 -12 2117 -10 l2094 2
34 37 34 38 0 1100 0 1100 -34 38 -34 37 -2095 3 -2094 2 -34 -23z m3963 -278
c15 -11 33 -29 38 -39 7 -13 10 -301 10 -840 0 -908 4 -851 -64 -888 -31 -17
-444 -19 -3304 -13 l-342 1 -38 34 -37 34 -3 817 c-2 713 0 820 13 848 20 42
49 60 110 67 28 3 846 4 1819 2 1750 -3 1770 -4 1798 -23z"/>
<path d="M14045 12075 c-24 -23 -25 -28 -25 -178 0 -148 1 -154 23 -175 l23
-22 690 0 c681 0 691 0 712 20 21 20 22 29 22 178 0 86 -4 162 -8 168 -21 33
-49 34 -732 34 l-681 0 -24 -25z"/>
<path d="M12233 11653 c-175 -4 -163 6 -143 -109 58 -329 337 -565 669 -564
165 1 340 72 455 186 78 77 128 148 119 172 -4 10 -2 13 5 8 15 -9 35 30 26
56 -4 13 -2 18 4 14 7 -4 17 14 27 46 16 55 37 180 30 186 -5 5 -1012 10
-1192 5z"/>
<path d="M8975 12995 c-27 -8 -86 -33 -130 -56 -44 -23 -177 -81 -296 -129
-119 -49 -240 -100 -270 -115 -161 -82 -279 -182 -327 -279 -13 -24 -32 -86
-43 -137 -27 -126 -40 -144 -125 -183 -120 -56 -197 -142 -234 -264 -71 -228
54 -482 267 -545 57 -17 67 -14 51 16 -6 12 -13 60 -16 108 -7 137 36 242 119
288 105 59 239 -14 280 -154 7 -25 16 -45 20 -45 15 0 41 87 54 181 9 64 20
109 33 126 20 27 311 219 347 229 13 3 57 -12 115 -40 137 -64 194 -85 290
-107 114 -25 273 -25 362 0 58 15 70 16 87 5 23 -17 41 -92 41 -173 l0 -57
-118 4 c-154 6 -277 -19 -215 -42 26 -10 264 -7 301 3 98 29 268 194 331 323
71 143 74 271 11 404 -51 105 -123 156 -338 239 -87 34 -119 66 -181 183 -85
159 -168 223 -295 228 -41 2 -92 -3 -121 -11z"/>
<path d="M8688 11683 c-39 -6 -35 -20 10 -33 54 -17 327 -26 336 -11 11 17
-32 29 -145 41 -101 10 -149 11 -201 3z"/>
<path d="M8824 11562 c-41 -26 -57 -138 -29 -192 43 -83 125 -24 125 90 0 68
-22 110 -58 110 -15 0 -32 -4 -38 -8z"/>
<path d="M9386 11545 c-40 -41 -44 -167 -5 -206 25 -25 35 -24 63 6 38 40 47
119 22 180 -12 27 -21 35 -40 35 -13 0 -32 -7 -40 -15z"/>
<path d="M8085 10883 c-125 -6 -395 -42 -395 -53 0 -4 -25 -8 -54 -9 -137 -3
-521 -126 -776 -247 -680 -326 -1150 -806 -1399 -1430 -136 -342 -183 -574
-184 -904 -1 -264 31 -451 111 -635 124 -291 145 -376 145 -595 -1 -217 -41
-375 -182 -717 -92 -223 -158 -400 -167 -449 -3 -21 -10 -43 -14 -49 -8 -10
-16 -52 -26 -132 -4 -24 -10 -43 -14 -43 -4 0 -10 -15 -13 -32 -3 -18 -13 -72
-23 -120 l-17 -88 -68 0 c-44 0 -69 4 -72 13 -3 7 -6 5 -6 -5 -1 -17 -34 -18
-542 -18 -532 0 -542 0 -576 -21 -67 -42 -76 -94 -42 -255 20 -97 105 -513
294 -1439 52 -253 126 -615 165 -805 39 -190 84 -410 100 -490 17 -80 32 -155
35 -167 l5 -23 1093 0 1093 0 28 223 c16 122 30 224 32 226 2 2 99 -43 216
-101 274 -136 527 -244 747 -319 l85 -29 620 0 621 0 38 317 c21 175 37 325
37 334 0 13 -15 18 -72 23 -154 14 -168 17 -168 37 0 10 -4 20 -9 23 -4 3 -11
25 -15 48 -4 24 -9 54 -12 68 -5 21 -4 22 6 10 10 -13 11 -12 6 3 -3 10 -6 21
-6 23 0 3 -4 2 -10 -1 -9 -5 -14 21 -13 62 1 7 -4 10 -10 6 -7 -4 -8 9 -4 37
4 29 2 39 -4 29 -6 -10 -9 -6 -9 16 0 17 -7 52 -15 79 -8 28 -13 66 -10 85 4
30 3 32 -4 11 -8 -21 -9 -22 -10 -5 -1 11 -4 31 -8 44 -5 18 -3 22 7 16 9 -5
11 -4 6 4 -4 6 -12 8 -18 5 -7 -4 -8 11 -4 47 3 32 2 44 -3 29 -7 -23 -8 -22
-14 15 -3 22 -8 49 -11 60 -3 11 -11 43 -16 70 -6 28 -25 111 -42 185 -17 74
-34 151 -38 170 -50 226 -62 278 -64 295 -1 11 -5 27 -8 35 -7 18 -32 132 -48
215 -6 33 -18 83 -25 110 -8 28 -19 89 -24 135 -6 47 -17 119 -25 160 -30 160
-77 397 -86 435 -5 22 -21 94 -35 160 -28 130 -60 262 -75 311 -6 17 -10 38
-10 47 0 18 -44 25 -54 8 -3 -4 -18 -11 -33 -14 -19 -4 -34 -18 -48 -42 -15
-30 -21 -34 -30 -22 -20 27 -50 29 -80 3 l-28 -24 29 -25 c28 -25 29 -25 10
-46 -27 -30 -40 -27 -80 20 l-35 42 -53 -22 -53 -22 -18 22 c-10 12 -16 28
-13 35 3 8 0 11 -8 8 -7 -3 -21 11 -32 33 -10 21 -22 40 -26 44 -12 8 -68 128
-68 144 0 8 -4 15 -8 15 -5 0 -15 19 -22 43 -7 23 -18 60 -25 82 -52 165 -53
311 -4 457 27 82 89 194 99 178 5 -8 9 -7 13 5 4 9 3 13 -3 10 -15 -9 -12 11
3 24 8 6 18 7 22 3 5 -4 5 -2 1 5 -3 6 -2 14 3 17 5 3 11 -1 15 -9 3 -8 10
-15 16 -15 6 0 4 7 -4 16 -22 21 -20 33 7 44 12 5 18 9 13 9 -5 1 7 14 25 31
19 16 40 28 47 25 7 -3 10 0 7 5 -8 13 123 97 198 126 105 41 207 57 331 51
112 -5 219 -24 211 -38 -3 -4 4 -5 15 -2 11 3 46 -7 78 -22 114 -54 178 -88
212 -114 75 -55 175 -145 174 -157 -1 -7 5 -10 15 -7 9 4 13 3 9 -2 -4 -4 0
-14 10 -21 13 -9 45 -11 127 -7 137 7 263 -9 376 -48 83 -28 93 -29 271 -29
l185 0 107 488 c59 268 132 600 162 737 30 138 61 279 69 315 8 36 26 119 40
185 28 125 38 152 64 172 12 9 107 12 369 13 193 0 352 4 352 8 0 5 -77 236
-170 513 -334 987 -313 934 -413 1025 -84 75 -146 100 -350 140 l-182 36 -85
62 c-131 96 -305 193 -441 246 l-51 20 -59 -54 c-33 -29 -79 -64 -103 -77 -30
-16 -47 -33 -56 -57 -19 -54 -80 -106 -149 -127 -120 -36 -335 -6 -556 77
l-90 33 3 54 c5 79 -22 190 -56 226 -16 17 -41 49 -57 73 -22 33 -33 42 -54
40 -14 -1 -53 -3 -86 -5z m-580 -5395 c14 -123 71 -371 84 -364 3 2 7 -9 7
-26 1 -17 6 -33 11 -37 6 -3 10 -13 10 -21 0 -27 69 -170 78 -163 4 5 5 0 2
-9 -6 -17 7 -35 16 -21 2 5 2 2 0 -5 -5 -21 16 -52 35 -53 11 0 12 -2 4 -6 -9
-4 -10 -9 -2 -18 8 -10 -15 -22 -107 -55 -65 -24 -123 -49 -129 -56 -11 -14
-6 -59 41 -394 29 -202 31 -301 9 -385 -32 -123 -128 -248 -239 -312 -55 -31
-164 -77 -170 -72 -1 2 -73 272 -159 599 -86 327 -168 633 -182 680 -14 47
-29 101 -34 120 -48 187 -134 517 -137 527 -5 14 -21 11 332 59 213 28 465 64
517 73 3 0 9 -27 13 -61z"/>
<path d="M14544 7719 c3 -17 6 -38 6 -46 0 -8 3 -12 8 -10 4 3 7 -26 7 -63 l1
-68 -92 -4 c-98 -4 -130 -17 -161 -65 -41 -62 -6 -205 73 -292 48 -54 142
-107 206 -117 21 -4 38 -9 38 -13 0 -3 9 -69 20 -146 11 -77 20 -147 20 -157
0 -17 -28 -18 -504 -18 -319 0 -514 -4 -533 -10 -51 -18 -63 -53 -63 -184 0
-131 9 -157 62 -175 19 -7 141 -11 326 -11 l294 0 -6 -32 c-3 -18 -77 -418
-165 -888 -87 -470 -173 -927 -189 -1015 -30 -160 -295 -1580 -376 -2007 l-43
-228 127 0 127 0 77 297 c43 164 91 348 107 408 16 61 54 205 84 320 30 116
107 414 172 662 l118 453 677 0 676 0 6 -102 c5 -93 57 -1928 56 -2005 l0 -33
134 0 134 0 6 62 c7 72 106 1984 106 2041 l0 37 658 0 659 0 28 -107 c32 -124
183 -701 255 -973 63 -239 201 -769 242 -932 l33 -128 128 0 c127 0 127 0 122
22 -5 20 -190 1006 -261 1388 -14 74 -74 401 -135 725 -60 325 -168 905 -239
1290 -72 385 -133 710 -135 723 l-5 22 327 0 c307 0 330 1 360 20 42 25 52 64
48 188 -4 179 16 172 -461 172 l-377 0 27 21 c25 20 26 23 26 138 0 104 -2
120 -20 139 l-21 22 -818 0 c-977 0 -871 19 -871 -156 0 -109 1 -116 25 -139
l24 -25 -225 0 -225 0 5 43 c4 23 17 143 31 267 14 124 38 334 53 468 15 133
26 245 23 247 -2 3 -131 5 -285 4 -167 0 -273 -4 -261 -9 13 -6 -4 -8 -50 -6
-38 2 -78 7 -89 11 -10 5 -26 4 -36 -3 -10 -6 -22 -7 -31 -1 -8 5 -27 9 -43 9
-27 0 -28 -2 -22 -31z m32 -263 c1 0 9 -59 18 -131 9 -71 19 -147 23 -167 5
-34 3 -38 -15 -38 -52 0 -141 58 -188 121 -77 105 -76 202 1 222 16 4 156 -2
161 -7z m1016 -1351 c13 -424 38 -1359 38 -1417 l0 -58 -623 0 c-343 0 -626 2
-629 5 -5 6 12 75 173 690 111 426 153 585 210 808 l54 207 385 -2 385 -3 7
-230z m1317 73 c23 -90 64 -246 91 -348 61 -231 171 -653 250 -955 33 -126 60
-233 60 -237 0 -11 -1198 -10 -1204 0 -3 5 15 386 39 848 25 461 45 842 45
847 0 4 152 7 338 7 l339 0 42 -162z"/>
<path d="M9634 6441 c-5 -5 -38 -18 -74 -29 -84 -26 -268 -90 -301 -104 -29
-13 -33 10 31 -185 17 -51 30 -101 30 -111 0 -10 4 -22 9 -28 6 -5 23 -49 40
-99 17 -49 40 -115 51 -145 12 -30 25 -66 30 -80 4 -14 13 -38 20 -55 15 -35
15 -36 71 -180 50 -130 72 -165 98 -158 42 11 68 -61 35 -98 -15 -17 -15 -22
8 -71 14 -29 33 -78 43 -108 10 -30 22 -61 27 -67 6 -7 8 -19 5 -27 -3 -8 0
-19 7 -25 7 -6 23 -44 35 -84 13 -39 29 -86 36 -102 21 -45 73 -187 107 -290
17 -49 36 -103 43 -120 8 -16 18 -46 24 -65 10 -33 45 -132 68 -190 40 -101
54 -152 49 -167 -4 -10 -4 -14 0 -10 9 9 25 -28 65 -148 17 -49 37 -105 46
-123 8 -18 12 -40 9 -48 -3 -9 -1 -12 4 -9 6 3 10 0 10 -8 0 -8 11 -35 25 -61
14 -26 25 -54 25 -62 0 -8 4 -22 9 -32 26 -50 42 -102 44 -143 1 -26 5 -45 8
-43 7 4 23 -27 37 -73 l10 -31 -96 -31 c-131 -41 -270 -78 -369 -98 l-83 -17
0 -45 c0 -53 7 -65 35 -68 102 -11 471 -57 550 -69 261 -38 417 -194 465 -464
19 -108 11 -100 104 -100 80 0 87 2 165 45 436 241 788 536 1086 910 319 400
532 873 629 1395 66 357 62 880 -10 1224 -8 37 -17 73 -21 80 -4 6 -8 13 -8
16 -1 3 -5 30 -9 60 -14 96 -85 326 -147 474 l-32 76 -826 -2 -826 -3 695 -5
695 -5 -692 -3 c-599 -2 -694 -4 -707 -17 -20 -21 -34 -19 -72 10 -19 15 -31
20 -28 11 3 -7 -5 -24 -17 -35 l-23 -21 28 -26 c26 -25 26 -27 10 -45 -9 -10
-23 -19 -30 -19 -17 0 -134 117 -134 134 0 8 6 17 13 19 21 9 -826 7 -858 -1
-17 -5 -76 -6 -133 -3 -64 4 -104 2 -106 -4 -3 -6 -8 -5 -13 2 -6 8 -13 9 -19
4z m216 -960 c0 -61 14 -77 71 -84 28 -4 54 -9 57 -12 3 -3 -3 -14 -14 -26
-14 -16 -28 -20 -61 -17 -46 3 -53 -6 -31 -42 10 -15 9 -23 -6 -39 -11 -12
-24 -21 -30 -21 -6 0 -40 29 -75 64 l-64 64 27 27 27 27 25 -23 24 -22 0 48
c0 31 6 55 17 67 23 26 33 22 33 -11z"/>
</g>
</svg>
