<?xml version="1.0" standalone="no"?>
<!DOCTYPE svg PUBLIC "-//W3C//DTD SVG 20010904//EN"
 "http://www.w3.org/TR/2001/REC-SVG-20010904/DTD/svg10.dtd">
<svg version="1.0" xmlns="http://www.w3.org/2000/svg"
 width="225.000000pt" height="225.000000pt" viewBox="0 0 225.000000 225.000000"
 preserveAspectRatio="xMidYMid meet">
<metadata>
Created by potrace 1.16, written by Peter Selinger 2001-2019
</metadata>
<g transform="translate(0.000000,225.000000) scale(0.100000,-0.100000)"
fill="#000000" stroke="none">
<path d="M0 1125 l0 -1125 1125 0 1125 0 0 1125 0 1125 -1125 0 -1125 0 0
-1125z m1140 687 c0 -5 11 -15 25 -22 17 -9 23 -19 20 -31 -3 -10 0 -27 7 -39
11 -17 11 -22 0 -29 -10 -6 -4 -10 20 -15 104 -20 223 -115 271 -218 20 -42
33 -58 47 -58 15 0 20 -7 20 -25 0 -19 5 -25 20 -25 19 0 21 -5 18 -62 l-3
-63 -460 0 -460 0 -3 63 c-3 57 -1 62 18 62 15 0 20 6 20 25 0 18 5 25 19 25
13 0 27 17 44 53 52 106 131 175 246 214 36 12 60 23 54 23 -16 0 -17 40 -2
40 7 0 9 9 6 23 -5 17 1 27 26 44 35 24 47 28 47 15z m-360 -852 l0 -240 -54
0 -54 0 -7 173 c-5 136 -3 287 4 305 1 1 26 2 56 2 l55 0 0 -240z m280 185 l0
-45 -40 0 -40 0 0 -45 c0 -45 0 -45 35 -45 l35 0 0 -50 c0 -49 -1 -50 -30 -50
-29 0 -30 -2 -30 -44 0 -43 1 -45 33 -48 31 -3 32 -5 35 -50 l3 -48 -100 0
-101 0 0 235 0 235 100 0 100 0 0 -45z m260 0 l0 -45 -40 0 -40 0 0 -45 c0
-45 0 -45 35 -45 l35 0 0 -51 0 -51 -30 6 -30 6 0 -50 0 -49 38 -3 c37 -3 37
-3 40 -50 l3 -48 -106 0 -107 0 3 235 3 235 98 0 98 0 0 -45z m270 0 l0 -45
-43 0 -42 0 3 -44 c4 -42 6 -45 35 -48 31 -3 32 -5 32 -48 0 -43 -1 -45 -32
-48 -32 -3 -33 -5 -33 -47 0 -43 0 -44 38 -47 37 -3 37 -3 40 -50 l3 -48 -100
0 -101 0 0 235 0 235 100 0 100 0 0 -45z m-802 -483 c6 -9 12 -33 12 -54 0
-36 -2 -38 -30 -38 -28 0 -30 3 -31 38 l-2 37 -6 -35 c-3 -19 -4 -60 -2 -90 4
-49 5 -51 10 -21 5 28 11 35 34 38 26 3 27 2 27 -36 0 -45 -26 -71 -71 -71
-40 0 -62 32 -67 98 -6 82 11 138 46 150 33 11 63 5 80 -16z m204 -84 l2 -103
3 103 4 102 29 0 30 0 0 -104 c0 -118 -8 -136 -65 -136 -53 0 -65 26 -65 142
l0 98 30 0 30 0 2 -102z m310 85 c10 -9 18 -27 18 -40 0 -32 -47 -33 -60 0 -9
22 -9 22 -9 1 -1 -13 13 -32 34 -48 31 -24 35 -32 35 -71 0 -48 -24 -75 -67
-75 -54 0 -88 83 -38 92 29 6 35 2 35 -24 0 -10 5 -18 10 -18 21 0 8 27 -30
65 -44 43 -54 90 -24 119 20 21 73 20 96 -1z m264 -1 c17 -11 26 -60 14 -82
-7 -12 -7 -21 0 -25 14 -9 13 -88 -2 -103 -7 -7 -36 -12 -65 -12 l-53 0 0 115
0 115 48 0 c26 0 52 -4 58 -8z"/>
</g>
</svg>
