<?xml version="1.0" standalone="no"?>
<!DOCTYPE svg PUBLIC "-//W3C//DTD SVG 20010904//EN"
 "http://www.w3.org/TR/2001/REC-SVG-20010904/DTD/svg10.dtd">
<svg version="1.0" xmlns="http://www.w3.org/2000/svg"
 width="225.000000pt" height="225.000000pt" viewBox="0 0 225.000000 225.000000"
 preserveAspectRatio="xMidYMid meet">
<metadata>
Created by potrace 1.16, written by Peter Selinger 2001-2019
</metadata>
<g transform="translate(0.000000,225.000000) scale(0.100000,-0.100000)"
fill="#000000" stroke="none">
<path d="M0 1125 l0 -1125 1125 0 1125 0 0 1125 0 1125 -1125 0 -1125 0 0
-1125z m1788 718 l3 -93 -91 0 -90 0 0 88 c0 49 3 92 7 96 4 4 43 5 88 4 l80
-3 3 -92z m-190 -70 l3 -93 -91 0 -90 0 0 95 0 96 88 -3 87 -3 3 -92z m-208
-38 l0 -95 -67 0 c-94 0 -113 19 -113 110 0 37 3 70 7 73 3 4 44 7 90 7 l83 0
0 -95z m-405 0 c174 -45 275 -151 293 -306 21 -185 -65 -343 -233 -424 -88
-42 -158 -55 -302 -55 l-113 0 0 -204 c0 -124 -4 -206 -10 -208 -5 -1 -43 -2
-85 0 l-75 4 0 604 0 604 233 0 c177 0 247 -4 292 -15z m803 -93 l3 -93 -88 3
-88 3 -3 79 c-2 44 -1 85 2 93 4 11 25 13 88 11 l83 -3 3 -93z m-196 -62 c-2
-47 -7 -89 -11 -93 -4 -4 -43 -7 -87 -5 l-79 3 -2 80 c-1 44 0 86 2 93 4 9 28
12 92 10 l88 -3 -3 -85z m-202 -45 l0 -95 -29 0 c-27 0 -30 4 -40 50 -6 28
-20 68 -31 90 -11 22 -20 42 -20 45 0 3 27 5 60 5 l60 0 0 -95z m398 -92 l3
-93 -91 0 -90 0 0 89 c0 103 -4 100 110 97 l65 -1 3 -92z m-200 -65 l-3 -93
-85 0 -85 0 -3 93 -3 92 91 0 91 0 -3 -92z m202 -138 l0 -90 -90 0 -90 0 0 90
0 90 90 0 90 0 0 -90z m-200 -60 l0 -90 -90 0 -90 0 0 90 0 90 90 0 90 0 0
-90z m200 -140 l0 -90 -90 0 -90 0 0 90 0 90 90 0 90 0 0 -90z m-360 -345 l0
-155 -40 0 -40 0 0 155 0 155 40 0 40 0 0 -155z m-632 -20 c4 -126 1 -135 -48
-135 l-40 0 0 116 0 115 43 -3 42 -3 3 -90z m134 63 l15 -33 17 33 c15 29 21
32 61 32 25 0 45 -3 45 -6 0 -3 -13 -25 -30 -49 -16 -24 -30 -50 -30 -57 0 -7
14 -33 30 -58 16 -25 30 -48 30 -52 0 -5 -19 -8 -43 -8 -37 0 -45 4 -61 32
-20 33 -21 32 -51 -17 -7 -12 -21 -16 -52 -13 l-42 3 35 57 35 58 -30 44 c-17
25 -31 49 -31 55 0 6 19 11 43 11 39 0 45 -3 59 -32z m349 3 c23 -23 29 -39
29 -70 l0 -41 -71 0 c-65 0 -70 -2 -58 -16 10 -13 25 -15 66 -11 53 6 53 5 53
-23 0 -31 -18 -40 -87 -40 -81 0 -123 40 -123 117 1 73 42 112 118 113 35 0
49 -6 73 -29z m353 19 c23 -8 25 -12 15 -34 -10 -21 -16 -23 -50 -19 -50 7
-50 -3 1 -23 66 -26 81 -86 33 -124 -22 -17 -38 -20 -87 -18 -61 3 -61 3 -64
36 l-3 33 50 -7 c52 -7 73 8 28 20 -107 26 -100 146 7 146 25 0 56 -4 70 -10z"/>
<path d="M630 1354 l0 -256 133 4 c161 6 227 27 281 90 87 101 69 296 -33 364
-64 42 -122 54 -258 54 l-123 0 0 -256z"/>
</g>
</svg>
